<?xml version="1.0" encoding="iso-8859-1"?>
<!-- Generator: Adobe Illustrator 19.0.0, SVG Export Plug-In . SVG Version: 6.00 Build 0)  -->
<svg version="1.1" id="Capa_1" xmlns="http://www.w3.org/2000/svg" xmlns:xlink="http://www.w3.org/1999/xlink" x="0px" y="0px"
	 viewBox="0 0 468.293 468.293" style="enable-background:new 0 0 468.293 468.293;" xml:space="preserve">
<path style="fill:#EBF0F3;" d="M468.293,286.595v22.478H0c0-17.483,4.371-33.093,11.863-47.454
	c16.859-31.22,49.951-52.449,87.415-52.449h1.249c8.741-56.82,70.556-101.151,144.859-101.151s136.741,44.332,145.483,101.151l0,0
	C433.327,209.171,468.293,244.137,468.293,286.595z"/>
<path style="fill:#27A2DB;" d="M355.902,209.171h-220.41c1.249-6.868,3.122-13.112,6.244-19.356
	c15.61-33.717,56.195-57.444,104.273-57.444C302.205,132.371,349.034,166.088,355.902,209.171z"/>
<circle style="fill:#2F4859;" cx="380.878" cy="319.063" r="41.21"/>
<circle style="fill:#EBF0F3;" cx="380.878" cy="319.063" r="20.605"/>
<circle style="fill:#2F4859;" cx="93.659" cy="319.063" r="41.21"/>
<circle style="fill:#EBF0F3;" cx="93.659" cy="319.063" r="20.605"/>
<path style="fill:#E56353;" d="M35.59,261.62v47.454H0c0-17.483,4.371-33.093,11.863-47.454H35.59z"/>
<g>
	<path style="fill:#FFFFFF;" d="M198.556,154.849l-28.722,28.722c-1.249,1.249-3.122,1.249-4.371,0
		c-1.249-1.249-1.249-3.122,0-4.371l28.722-28.722c1.249-1.249,3.122-1.249,4.371,0C199.805,151.727,199.805,153.6,198.556,154.849z
		"/>
	<path style="fill:#FFFFFF;" d="M199.18,167.961l-16.234,16.234c-1.249,1.249-3.122,1.249-4.371,0c-1.249-1.249-1.249-3.122,0-4.371
		l16.234-16.234c1.249-1.249,3.122-1.249,4.371,0C200.429,164.839,200.429,166.712,199.18,167.961z"/>
</g>
<g>
</g>
<g>
</g>
<g>
</g>
<g>
</g>
<g>
</g>
<g>
</g>
<g>
</g>
<g>
</g>
<g>
</g>
<g>
</g>
<g>
</g>
<g>
</g>
<g>
</g>
<g>
</g>
<g>
</g>
</svg>
