<svg id="color" enable-background="new 0 0 24 24" height="512" viewBox="0 0 24 24" width="512" xmlns="http://www.w3.org/2000/svg"><path d="m18.25 24h-12.5c-1.517 0-2.75-1.233-2.75-2.75v-18.5c0-1.517 1.233-2.75 2.75-2.75h12.5c1.517 0 2.75 1.233 2.75 2.75v18.5c0 1.517-1.233 2.75-2.75 2.75z" fill="#eceff1"/><path d="m17 14h-10c-.553 0-1-.448-1-1s.447-1 1-1h10c.553 0 1 .448 1 1s-.447 1-1 1z" fill="#90a4ae"/><path d="m17 19h-10c-.553 0-1-.448-1-1s.447-1 1-1h10c.553 0 1 .448 1 1s-.447 1-1 1z" fill="#90a4ae"/><path d="m12 0h-6.25c-1.517 0-2.75 1.233-2.75 2.75v18.5c0 1.517 1.233 2.75 2.75 2.75h6.25v-5h-5c-.553 0-1-.448-1-1s.447-1 1-1h5v-3h-5c-.553 0-1-.448-1-1s.447-1 1-1h5z" fill="#cdd0d2"/><path d="m12 12h-5c-.553 0-1 .448-1 1s.447 1 1 1h5z" fill="#7d8f97"/><path d="m12 17h-5c-.553 0-1 .448-1 1s.447 1 1 1h5z" fill="#7d8f97"/><path d="m10.25 9h-1.5c-.965 0-1.75-.785-1.75-1.75v-2.5c0-.965.785-1.75 1.75-1.75h1.5c.414 0 .75.336.75.75s-.336.75-.75.75h-1.5c-.138 0-.25.112-.25.25v2.5c0 .138.112.25.25.25h1.5c.414 0 .75.336.75.75s-.336.75-.75.75z" fill="#90a4ae"/><path d="m14.277 8.451-1.25-4.5c-.111-.399.123-.812.521-.923.399-.112.813.123.924.522l.528 1.898.527-1.898c.11-.399.521-.634.924-.522.398.111.633.524.521.923l-1.25 4.5c-.201.73-1.243.73-1.445 0z" fill="#90a4ae"/><g fill="#7d8f97"><path d="m9 3h-.25c-.965 0-1.75.785-1.75 1.75v2.5c0 .965.785 1.75 1.75 1.75h.25v-1.5h-.25c-.138 0-.25-.112-.25-.25v-2.5c0-.138.112-.25.25-.25h.25z"/><path d="m13.751 2.999c-.067 0-.135.009-.202.028-.398.111-.633.524-.521.923l1.25 4.5c.1.366.411.548.722.548v-3.55l-.527-1.898c-.092-.332-.393-.551-.722-.551z"/></g></svg>