<svg id="color" enable-background="new 0 0 24 24" height="512" viewBox="0 0 24 24" width="512" xmlns="http://www.w3.org/2000/svg"><path d="m21.25 0h-18.5c-1.517 0-2.75 1.233-2.75 2.75v18.5c0 1.517 1.233 2.75 2.75 2.75h18.5c1.517 0 2.75-1.233 2.75-2.75v-18.5c0-1.517-1.233-2.75-2.75-2.75z" fill="#00bcd4"/><path d="m12 19c-.205 0-.401-.084-.542-.232l-5.25-5.5c-.456-.477-.117-1.268.542-1.268h2.75v-5.75c0-.689.561-1.25 1.25-1.25h2.5c.689 0 1.25.561 1.25 1.25v5.75h2.75c.659 0 .998.791.542 1.268l-5.25 5.5c-.141.148-.337.232-.542.232z" fill="#fff"/><path d="m12 0h-9.25c-1.517 0-2.75 1.233-2.75 2.75v18.5c0 1.517 1.233 2.75 2.75 2.75h9.25v-5c-.205 0-.401-.084-.542-.232l-5.25-5.5c-.456-.477-.117-1.268.542-1.268h2.75v-5.75c0-.689.561-1.25 1.25-1.25h1.25z" fill="#00a4b9"/><path d="m12 5h-1.25c-.689 0-1.25.561-1.25 1.25v5.75h-2.75c-.659 0-.998.791-.542 1.268l5.25 5.5c.141.148.337.232.542.232z" fill="#dedede"/></svg>