<svg id="Capa_1" enable-background="new 0 0 512.014 512.014" height="512" viewBox="0 0 512.014 512.014" width="512" xmlns="http://www.w3.org/2000/svg"><g><g><path d="m375.86 150.528v107.004s-42.965-31.627-120.079-31.627-120.069 31.627-120.069 31.627v-107.004s42.955-31.637 120.069-31.637 120.079 31.637 120.079 31.637z" fill="#838eb1"/></g><g><path d="m375.86 257.532s-42.955 31.627-120.069 31.627-120.079-31.627-120.079-31.627 42.955-31.627 120.069-31.627 120.079 31.627 120.079 31.627z" fill="#838eb1"/></g><g><path d="m375.86 159.758v-9.232s-42.965-31.637-120.078-31.637-120.069 31.637-120.069 31.637v9.232l-105.449-33.777 225.517-98.752 225.527 98.752z" fill="#838eb1"/></g><g><ellipse cx="30.263" cy="250.495" fill="#ffce62" rx="20.256" ry="20.594"/></g><g><path d="m274.199 484.785h-36.384c-28.072 0-51.884-18.584-59.779-44.096l-145.663 39.455c-8.749 2.218-17.64-3.077-19.858-11.827l-2.004-7.906c-2.218-8.75 3.077-17.64 11.827-19.858l161.463-43.46c16.437-4.164 32.139 8.635 32.297 25.354.112 11.845 10.343 21.495 22.214 21.495h35.388c11.94 0 22.221-9.763 22.215-21.703-.009-16.637 16.143-29.237 32.297-25.145l161.463 43.459c8.75 2.218 14.045 11.108 11.827 19.858l-2.004 7.906c-2.218 8.749-11.108 14.044-19.858 11.827l-145.662-39.454c-7.895 25.512-31.708 44.095-59.779 44.095z" fill="#ff7d95"/></g><g><path d="m256.002 392v51.942h-17.682c-11.953 0-22.235-9.762-22.225-21.705 0-17.126-16.724-29.339-33.097-25.026l-139.463 37.638c0-40.929-26.216-53.644-26.216-53.644l167.707-43.916c10.772-2.841 22.155-2.431 32.697 1.18 22.895 7.821 38.279 29.326 38.279 53.531z" fill="#f9f5f3"/></g><g><path d="m494.54 381.122s-26.215 12.756-26.215 53.686l-139.299-37.596c-16.397-4.103-33.117 7.744-33.117 25.026.01 11.943-10.272 21.705-22.205 21.705h-17.702v-51.943c0-24.205 15.393-45.71 38.289-53.532 10.552-3.611 21.925-4.021 32.697-1.18z" fill="#f9f5f3"/></g><path d="m30.263 281.089c16.684 0 30.256-13.724 30.256-30.594 0-13.2-8.311-24.473-19.919-28.753v-81.949l85.112 27.264v90.476c.091 3.162 1.492 6.155 4.072 8.053 1.862 1.371 46.523 33.574 126.007 33.574s124.136-32.204 125.998-33.575c2.515-1.853 4.071-4.927 4.071-8.053v-90.476l98.499-31.552c3.96-1.269 6.723-4.856 6.936-9.01.213-4.153-2.166-8.005-5.976-9.673l-225.527-98.753c-2.558-1.12-5.466-1.12-8.022 0l-225.518 98.752c-3.81 1.668-6.189 5.52-5.976 9.674.036.699.324 95.016.324 95.016-11.958 4.087-20.594 15.531-20.594 28.985.001 16.869 13.574 30.594 30.257 30.594zm143.582-138.339c59.022-21.674 137.491-19.517 192.015 13.224v84.143c-35.151-17.724-75.378-24.768-114.505-24.175-36.194.544-73.163 7.756-105.643 24.173v-84.16c8.834-5.337 18.436-9.643 28.133-13.205zm81.947 136.409c-47.956 0-82.249-12.866-100.081-21.657 60.23-29.84 139.868-29.629 200.09.031-17.857 8.794-52.119 21.626-100.009 21.626zm-.011-241.014 197.28 86.383-68.116 21.819c-.796-1.732-2.106-3.142-3.653-4.229-35.091-24.781-83.677-33.23-125.512-33.23-42.157 0-89.983 8.431-125.279 33.074-1.636 1.135-3.033 2.554-3.875 4.385l-68.116-21.819zm-225.518 201.756c5.655 0 10.256 4.752 10.256 10.594s-4.601 10.594-10.256 10.594-10.256-4.752-10.256-10.594 4.601-10.594 10.256-10.594z"/><path d="m492.215 430.881-13.514-3.637c1.068-10.814 4.414-20.045 9.989-27.517 4.849-6.5 9.807-9.37 10.359-9.677 3.783-1.796 5.94-5.71 5.561-9.885-.381-4.197-3.461-7.651-7.538-8.717l-51.496-13.472c-5.344-1.397-10.807 1.8-12.205 7.144-1.398 5.343 1.8 10.808 7.144 12.205l33.46 8.753c-6.306 7.861-12.556 19.481-14.788 35.914l-127.537-34.43c-22.25-6.023-45.741 11.427-45.741 34.684.002 3.009-1.269 5.9-3.581 8.139-2.334 2.261-5.477 3.557-8.624 3.557h-7.702v-41.942c0-19.917 12.667-37.627 31.526-44.07 8.712-2.981 18.017-3.317 26.93-.967l30.859 8.073c5.343 1.399 10.808-1.8 12.205-7.144 1.398-5.343-1.8-10.808-7.144-12.205l-30.84-8.068c-12.72-3.354-26.028-2.875-38.48 1.387-14.923 5.098-27.127 15.141-35.054 27.92-7.924-12.779-20.124-22.822-35.04-27.917-12.452-4.265-25.762-4.745-38.471-1.394l-167.707 43.915c-4.076 1.067-7.155 4.522-7.536 8.718-.379 4.175 1.778 8.089 5.561 9.884.553.308 5.511 3.178 10.359 9.677 5.567 7.463 8.911 16.681 9.984 27.478l-13.348 3.593c-6.788 1.741-12.498 6.014-16.085 12.037-3.601 6.045-4.631 13.131-2.902 19.952l2.004 7.906c1.729 6.821 6.01 12.56 12.056 16.161 6.045 3.6 13.131 4.63 19.952 2.902.053-.013.105-.027.157-.041l136.989-37.105c5.046 10.82 12.783 20.415 22.383 27.614 12.633 9.473 27.66 14.48 43.455 14.48h36.384c15.795 0 30.821-5.007 43.455-14.48 9.601-7.199 17.337-16.794 22.383-27.614l136.989 37.105c.052.014.104.028.157.041 6.821 1.729 13.907.698 19.952-2.902 6.046-3.601 10.327-9.34 12.056-16.161l2.004-7.906c1.729-6.821.698-13.907-2.902-19.952-3.586-6.022-9.293-10.293-16.078-12.036zm-454.332-44.724 149.693-39.199c8.896-2.347 18.201-2.011 26.914.974 18.848 6.439 31.511 24.149 31.511 44.069v41.942h-7.682c-6.477 0-12.229-5.445-12.225-11.705 0-23.306-23.625-40.497-45.723-34.674l-127.704 34.471c-2.237-16.412-8.483-28.024-14.784-35.878zm453.926 71.798-2.004 7.906c-1.291 3.635-3.841 5.171-7.647 4.605l-145.565-39.428c-5.196-1.406-10.575 1.553-12.167 6.696-6.751 21.816-27.404 37.052-50.226 37.052h-36.384c-22.821 0-43.475-15.236-50.226-37.052-1.324-4.278-5.268-7.046-9.548-7.046-.866 0-1.745.113-2.619.35l-145.567 39.427c-3.807.566-6.356-.969-7.647-4.605l-2.004-7.906c-.816-3.222 1.587-6.901 4.732-7.745l161.385-43.438c10.054-2.505 19.681 5.584 19.777 15.771.161 16.705 14.689 31.401 32.213 31.401h35.388c8.417 0 16.423-3.264 22.543-9.19 6.241-6.043 9.676-14.041 9.671-22.519-.005-10.003 9.967-17.904 19.777-15.462l38.363 10.326 123.021 33.112c3.147.843 5.55 4.522 4.734 7.745z"/><path d="m409.997 351.277c-3.046-4.529-9.321-5.774-13.87-2.76-4.548 3.013-5.762 9.336-2.76 13.86 3.008 4.533 9.348 5.799 13.87 2.77 4.525-3.031 5.778-9.34 2.76-13.87z"/></g></svg>