<svg id="Layer_35" enable-background="new 0 0 64 64" height="512" viewBox="0 0 64 64" width="512" xmlns="http://www.w3.org/2000/svg"><path d="m16 62h-10c0-4.55 2.07-8.77 5.49-11.55 1.12-.91 2.39-1.67 3.77-2.24l7.68-3.14 4.06 8.93 3.72-4.46-1.72 12.46z" fill="#5cd6b3"/><path d="m48 62h-13l-1.72-12.46 3.72 4.46 4.06-8.93 7.68 3.14c1.39.57 2.66 1.33 3.78 2.25 1.15.93 2.14 2.02 2.95 3.24 1.61 2.4 2.53 5.28 2.53 8.3z" fill="#5cd6b3"/><path d="m32 48-1.28 1.53v.01l-3.72 4.46-4.06-8.93 2.57-1.05c.24-.1.48-.22.69-.37z" fill="#37bc9b"/><path d="m41.06 45.07-4.06 8.93-3.72-4.46v-.01l-1.28-1.53 5.8-4.35c.21.15.45.27.69.37z" fill="#37bc9b"/><path d="m33.28 49.53v.01l1.72 12.46h-6l1.72-12.46v-.01l1.28-1.53z" fill="#b27946"/><path d="m53 46c0 1.53-.17 3.02-.48 4.46-1.12-.92-2.39-1.68-3.78-2.25l-7.68-3.14-2.57-1.05c-.24-.1-.48-.22-.69-.37-1.11-.73-1.8-1.98-1.8-3.34v-1.24c4.91-3.18 8-8.68 8-14.72v-.35-3.16c0-2.43-1.1-4.72-3-6.24l-2-1.6c-1.23 2.45-3.73 4-6.47 4h-8.53c-2.21 0-4 1.79-4 4v3 .35c0 3.77 1.21 7.34 3.31 10.26 1.27 1.75 2.85 3.27 4.69 4.46v1.24c0 1.36-.69 2.61-1.8 3.34-.21.15-.45.27-.69.37l-2.57 1.05-7.68 3.14c-1.38.57-2.65 1.33-3.77 2.24-.27-1.22-.44-2.48-.48-3.77-.13-4 .87-7.75 2.69-10.97 1.51-2.68 2.3-5.71 2.3-8.79v-8.92c0-8.84 7.16-16 16-16s16 7.16 16 16v8.92c0 3.05.74 6.06 2.25 8.71 1.75 3.06 2.75 6.59 2.75 10.37z" fill="#b27946"/><path d="m37.8 43.65-5.8 4.35-5.8-4.35c1.11-.73 1.8-1.98 1.8-3.34v-1.24c1.23.8 2.57 1.45 4 1.93 1.43-.48 2.77-1.13 4-1.93v1.24c0 1.36.69 2.61 1.8 3.34z" fill="#f0d0b4"/><path d="m41 14.6-2-1.6c-1.23 2.45-3.73 4-6.47 4h-8.53c-2.21 0-4 1.79-4 4v3 .35c0 3.77 1.21 7.34 3.31 10.26 1.27 1.75 2.85 3.27 4.69 4.46 1.23.8 2.57 1.45 4 1.93 1.43-.48 2.77-1.13 4-1.93 4.91-3.18 8-8.68 8-14.72v-.35-3.16c0-2.43-1.1-4.72-3-6.24z" fill="#f0d0b4"/><path d="m30 23v1c0 1.66-1.34 3-3 3h-2c-1.66 0-3-1.34-3-3v-1c0-1.1.9-2 2-2h4c1.1 0 2 .9 2 2z" fill="#69d6f4"/><path d="m42 23v1c0 1.66-1.34 3-3 3h-2c-1.66 0-3-1.34-3-3v-1c0-1.1.9-2 2-2h4c1.1 0 2 .9 2 2z" fill="#69d6f4"/><path d="m32 36c2.206 0 4-1.794 4-4h-2c0 1.103-.897 2-2 2s-2-.897-2-2h-2c0 2.206 1.794 4 4 4z"/><path d="m32 7v-2c-3.693 0-7.225 1.579-9.689 4.333l1.49 1.334c2.085-2.33 5.074-3.667 8.199-3.667z"/><path d="m22.471 12.501-1.73-1.002c-.399.689-.736 1.419-1 2.168l1.886.666c.222-.633.507-1.249.844-1.832z"/><path d="m53.613 50.077c.252-1.344.387-2.711.387-4.077 0-3.812-.996-7.569-2.879-10.869-1.388-2.43-2.121-5.268-2.121-8.208v-8.923c0-9.374-7.626-17-17-17s-17 7.626-17 17v8.924c0 2.913-.75 5.782-2.17 8.295-1.971 3.488-2.946 7.461-2.819 11.489.035 1.103.181 2.228.396 3.352-3.38 2.959-5.407 7.261-5.407 11.94v1h54v-1c0-4.67-2.019-8.964-5.387-11.923zm-41.603-3.431c-.116-3.663.77-7.273 2.561-10.442 1.589-2.814 2.429-6.022 2.429-9.28v-8.924c0-8.271 6.729-15 15-15s15 6.729 15 15v8.923c0 3.287.824 6.469 2.384 9.2 1.711 2.997 2.616 6.413 2.616 9.877 0 .905-.069 1.811-.191 2.708-.839-.547-1.732-1.03-2.686-1.42l-10.259-4.197c-1.132-.463-1.864-1.553-1.864-2.777v-.718c4.921-3.401 8-9.039 8-15.246v-3.506c0-2.749-1.231-5.311-3.378-7.028l-2.963-2.37-.553 1.106c-1.064 2.127-3.201 3.448-5.578 3.448h-8.528c-2.757 0-5 2.243-5 5v3.351c0 6.206 3.079 11.845 8 15.246v.718c0 1.224-.732 2.313-1.864 2.776l-10.259 4.197c-.95.389-1.841.87-2.677 1.415-.098-.691-.168-1.38-.19-2.057zm27.99-26.646h-4c-1.302 0-2.402.839-2.816 2h-2.369c-.414-1.161-1.514-2-2.816-2h-4c-1.654 0-3 1.346-3 3v-2c0-1.654 1.346-3 3-3h8.528c2.728 0 5.216-1.316 6.743-3.503l1.103.882c1.669 1.335 2.627 3.328 2.627 5.466v2.155c0-1.654-1.346-3-3-3zm1 3v1c0 1.103-.897 2-2 2h-2c-1.103 0-2-.897-2-2v-1c0-.552.449-1 1-1h4c.551 0 1 .448 1 1zm-12 0v1c0 1.103-.897 2-2 2h-2c-1.103 0-2-.897-2-2v-1c0-.552.449-1 1-1h4c.551 0 1 .448 1 1zm-4 5h2c2.206 0 4-1.794 4-4h2c0 2.206 1.794 4 4 4h2c2.206 0 4-1.794 4-4v.351c0 7.023-4.406 13.247-11 15.592-6.594-2.345-11-8.568-11-15.592v-.351c0 2.206 1.794 4 4 4zm6.684 13.948.316.106.316-.105c.947-.316 1.855-.702 2.719-1.152.1 1.049.518 2.017 1.186 2.788l-4.221 3.165-4.222-3.166c.668-.771 1.086-1.739 1.186-2.788.864.45 1.773.837 2.72 1.152zm-5.79 2.994c.076-.031.144-.074.218-.109l4.447 3.335-3.307 3.968-2.97-6.535zm6.106 4.619.328.393 1.524 11.046h-3.705l1.525-11.046zm1.442-1.392 4.447-3.335c.074.035.142.078.218.109l1.612.659-2.97 6.535zm-17.808.971 6.795-2.78 4.319 9.504 2.504-3.005-1.124 8.141h-11.128v-6h-2v6h-7.965c.373-5.255 3.665-9.842 8.599-11.86zm33.366 11.86v-6h-2v6h-11.128l-1.124-8.141 2.504 3.005 4.32-9.504 6.795 2.78c4.934 2.019 8.226 6.605 8.599 11.86z"/></svg>