<svg height="512" viewBox="0 0 512 512" width="512" xmlns="http://www.w3.org/2000/svg"><g id="filled_outline" data-name="filled outline"><path d="m318.16 421.95a119.744 119.744 0 0 1 -5.89-29.95c-.18-2.66-.27-5.32-.27-8v-24h-112v24a120 120 0 0 1 -24 72l76 13 84-13a119.913 119.913 0 0 1 -17.84-34.05zm-62.16 2.05a24.006 24.006 0 0 1 -24-24 23.6 23.6 0 0 1 1.38-8 23.99 23.99 0 0 1 45.24 0 23.6 23.6 0 0 1 1.38 8 24.006 24.006 0 0 1 -24 24z" fill="#cdcdcd"/><rect fill="#b7f7d7" height="342" rx="32" width="464" x="24" y="24"/><rect fill="#aae5c8" height="343" rx="32" width="456" x="24" y="24"/><g fill="#8dc79d"><path d="m384 160h-40v-16h32v-40a8 8 0 0 1 8-8h48v16h-40v40a8 8 0 0 1 -8 8z"/><path d="m432 272h-48a8 8 0 0 1 -8-8v-40h-48v-16h56a8 8 0 0 1 8 8v40h40z"/><path d="m336 176h96v16h-96z"/><path d="m448 96h16v16h-16z"/><path d="m448 176h16v16h-16z"/><path d="m448 256h16v16h-16z"/><path d="m168 160h-40a8 8 0 0 1 -8-8v-40h-40v-16h48a8 8 0 0 1 8 8v40h32z"/><path d="m128 272h-48v-16h40v-40a8 8 0 0 1 8-8h56v16h-48v40a8 8 0 0 1 -8 8z"/><path d="m80 176h96v16h-96z"/><path d="m48 96h16v16h-16z"/><path d="m48 176h16v16h-16z"/><path d="m48 256h16v16h-16z"/></g><path d="m307.17 241.15 29-7.58-.35-32-29.14-6.95c-.42-.88-.85-1.75-1.32-2.62-.37-.7-.76-1.4-1.17-2.09-.91-1.54-1.9-3.02-2.93-4.44l.4-1.47 7.53-27.43-27.89-15.69-20.6 21.77a56.374 56.374 0 0 0 -10.63.1l-21.05-21.3-27.54 16.3 7.82 26.25.73 2.46a55.4 55.4 0 0 0 -3.38 5.54c-.66 1.22-1.26 2.46-1.82 3.72l-29 7.59.35 32 29.14 6.95q1.125 2.385 2.49 4.7c.91 1.55 1.9 3.03 2.93 4.45l-7.93 28.89 27.89 15.7 20.6-21.77a55.552 55.552 0 0 0 10.63-.11l21.05 21.31 27.54-16.3-8.55-28.71a56.326 56.326 0 0 0 5.2-9.27zm-51.17 1.29a24 24 0 1 1 24-24 24.006 24.006 0 0 1 -24 24z" fill="#c3c3c3"/><path d="m368 488h-224v-16a16 16 0 0 1 16-16h192a16 16 0 0 1 16 16z" fill="#eaeae8"/><path d="m488 328v16a32 32 0 0 1 -32 32h-400a32 32 0 0 1 -32-32v-16z" fill="#f0f0ee"/><path d="m480 328v16a32 32 0 0 1 -32 32h-392a32 32 0 0 1 -32-32v-16z" fill="#eaeae8"/><path d="m352 160v24h-192v-24a78.343 78.343 0 0 1 .4-8 79.964 79.964 0 0 1 74.77-71.85q2.4-.15 4.83-.15h32q2.43 0 4.83.15a80.02 80.02 0 0 1 74.77 71.85 78.343 78.343 0 0 1 .4 8z" fill="#ea9d2d"/><path d="m200 90.71v45.29h-16v-33.13a79.866 79.866 0 0 1 16-12.16z" fill="#f3af3e"/><path d="m328 102.88v33.12h-16v-45.29a79.913 79.913 0 0 1 16 12.17z" fill="#f3af3e"/><path d="m352 160v24h-192v-24a78.343 78.343 0 0 1 .4-8h191.2a78.343 78.343 0 0 1 .4 8z" fill="#f3af3e"/><path d="m206.65 192a55.4 55.4 0 0 1 3.38-5.54l-.73-2.46h92.36l-.4 1.47c1.03 1.42 2.02 2.9 2.93 4.44.41.69.8 1.39 1.17 2.09z" fill="#a8a8a8"/><path d="m200 376h56a24 24 0 0 0 -22.62 16h-33.38z" fill="#b9b9b9"/><path d="m312.27 392h-33.65a24 24 0 0 0 -22.62-16h56v8c0 2.68.09 5.34.27 8z" fill="#b9b9b9"/><path d="m304 184h-96v-32a35.625 35.625 0 0 0 17.631-24.153l12.922-64.612a9 9 0 0 1 8.825-7.235h17.244a9 9 0 0 1 8.825 7.235l12.922 64.612a35.625 35.625 0 0 0 17.631 24.153z" fill="#fbb540"/><path d="m456 16h-400a40.045 40.045 0 0 0 -40 40v288a40.045 40.045 0 0 0 40 40h136a112.76 112.76 0 0 1 -20.1 64h-11.9a24.027 24.027 0 0 0 -24 24v16a8 8 0 0 0 8 8h224a8 8 0 0 0 8-8v-16a24.027 24.027 0 0 0 -24-24h-11.9a112.76 112.76 0 0 1 -20.1-64h136a40.045 40.045 0 0 0 40-40v-288a40.045 40.045 0 0 0 -40-40zm-400 16h400a24.028 24.028 0 0 1 24 24v264h-448v-264a24.028 24.028 0 0 1 24-24zm304 440v8h-208v-8a8.009 8.009 0 0 1 8-8h192a8.009 8.009 0 0 1 8 8zm-38.83-24h-130.34a128.909 128.909 0 0 0 17.17-64h20.305a32 32 0 1 0 55.39 0h20.305a128.909 128.909 0 0 0 17.17 64zm-49.17-48a16 16 0 1 1 -16-16 16.019 16.019 0 0 1 16 16zm208-56a24.028 24.028 0 0 1 -24 24h-400a24.028 24.028 0 0 1 -24-24v-8h448z"/><path d="m448 96h16v16h-16z"/><path d="m448 176h16v16h-16z"/><path d="m448 256h16v16h-16z"/><path d="m136 264v-40h32.056l.125 11.4a8 8 0 0 0 6.143 7.7l25.549 6.093q.507.927 1.039 1.826c.362.617.739 1.232 1.134 1.85l-6.946 25.313a8 8 0 0 0 3.791 9.089l27.89 15.7a8 8 0 0 0 9.735-1.472l18.058-19.084q2.138.051 4.267-.044l18.453 18.681a8 8 0 0 0 9.766 1.262l27.54-16.3a8 8 0 0 0 3.592-9.167l-7.5-25.178q1.1-1.821 2.084-3.715l25.42-6.644a8 8 0 0 0 5.976-7.828l-.1-9.482h31.928v40a8 8 0 0 0 8 8h48v-16h-40v-40a8 8 0 0 0 -8-8h-40.109l-.072-6.518a8 8 0 0 0 -6.143-7.694l-7.5-1.788h101.824v-16h-72v-16h24a8 8 0 0 0 8-8v-40h40v-16h-48a8 8 0 0 0 -8 8v40h-17.459a87.98 87.98 0 0 0 -75.031-71.243l-2.218-11.091a17.047 17.047 0 0 0 -16.67-13.666h-17.244a17.047 17.047 0 0 0 -16.67 13.666l-2.218 11.091a87.981 87.981 0 0 0 -75.031 71.243h-17.459v-40a8 8 0 0 0 -8-8h-48v16h40v40a8 8 0 0 0 8 8h24v16h-72v16h107.448l-13.643 3.571a8 8 0 0 0 -5.974 7.827l.05 4.6h-39.881a8 8 0 0 0 -8 8v40h-40v16h48a8 8 0 0 0 8-7.998zm136-45.56a16 16 0 1 1 -16-16 16.019 16.019 0 0 1 16 16zm-56-42.44v-16h80v16zm128 0h-32v-16h32zm-32-75.864v35.864h16v-21.213a72.208 72.208 0 0 1 14.188 29.213h-35.959a27.569 27.569 0 0 1 -12.015-17.722l-7.347-36.735a71.543 71.543 0 0 1 25.133 10.593zm-64.622-36.136h17.244a1 1 0 0 1 .98.8l12.922 64.612a43.624 43.624 0 0 0 5.8 14.584h-56.65a43.632 43.632 0 0 0 5.8-14.584l12.926-64.612a1 1 0 0 1 .978-.8zm-63.378 50.786v21.214h16v-35.864a71.567 71.567 0 0 1 25.133-10.593l-7.347 36.734a27.568 27.568 0 0 1 -12.015 17.723h-35.959a72.238 72.238 0 0 1 14.188-29.214zm-16 45.214h32v16h-32zm38.855 43.459a8 8 0 0 0 5.291-4.5 48.272 48.272 0 0 1 3.812-6.959h22.042a32 32 0 1 0 36 0h22.054q.663 1 1.236 1.961c.784 1.337 1.509 2.706 2.152 4.072a8 8 0 0 0 5.38 4.369l23.065 5.5.213 19.507-22.955 6a8 8 0 0 0 -5.293 4.5 48.418 48.418 0 0 1 -4.459 7.952 8 8 0 0 0 -1.093 6.839l6.767 22.724-16.789 9.937-16.656-16.861a8.012 8.012 0 0 0 -6.543-2.332 47.754 47.754 0 0 1 -9.1.093 7.987 7.987 0 0 0 -6.49 2.472l-16.307 17.234-17-9.572 6.277-22.865a8 8 0 0 0 -1.24-6.816c-.965-1.33-1.785-2.574-2.518-3.822-.773-1.308-1.493-2.668-2.141-4.042a8 8 0 0 0 -5.38-4.37l-23.064-5.5-.214-19.51z"/><path d="m48 96h16v16h-16z"/><path d="m48 176h16v16h-16z"/><path d="m48 256h16v16h-16z"/></g></svg>